<?xml version="1.0" standalone="no"?>
<!DOCTYPE svg PUBLIC "-//W3C//DTD SVG 20010904//EN"
 "http://www.w3.org/TR/2001/REC-SVG-20010904/DTD/svg10.dtd">
<svg version="1.0" xmlns="http://www.w3.org/2000/svg"
 width="350.000000pt" height="350.000000pt" viewBox="0 0 350.000000 350.000000"
 preserveAspectRatio="xMidYMid meet">
<metadata>
Created by potrace 1.14, written by Peter Selinger 2001-2017
</metadata>
<g transform="translate(0.000000,350.000000) scale(0.100000,-0.100000)"
fill="#000000" stroke="none">
<path d="M1105 2740 c-76 -11 -201 -47 -253 -74 -31 -17 -124 -103 -278 -258
-216 -217 -234 -238 -257 -298 -14 -36 -30 -86 -36 -110 -5 -25 -13 -58 -17
-75 -3 -16 -8 -86 -9 -155 -3 -138 9 -220 51 -352 l27 -83 241 -243 c176 -178
253 -249 286 -263 72 -33 216 -68 306 -75 l84 -7 0 187 c0 171 -1 186 -18 186
-21 0 -632 609 -632 630 0 18 800 820 818 820 6 0 232 -220 502 -490 269 -269
493 -490 498 -490 4 0 43 36 87 80 l80 80 -500 500 -500 500 -215 -1 c-118 -1
-237 -5 -265 -9z"/>
<path d="M2250 2566 c0 -171 1 -186 18 -186 21 0 632 -609 632 -630 0 -19
-793 -813 -815 -816 -10 -2 -206 187 -506 487 -269 269 -492 489 -497 489 -4
0 -43 -36 -87 -80 l-80 -80 500 -500 500 -500 203 0 c233 0 307 9 447 52 l100
31 243 241 c264 262 265 262 308 421 50 181 42 391 -23 588 l-27 82 -241 243
c-175 177 -252 249 -285 263 -67 31 -221 68 -311 75 l-79 7 0 -187z"/>
<path d="M1332 2167 l-82 -82 418 -418 417 -417 83 83 82 82 -418 418 -417
417 -83 -83z"/>
</g>
</svg>
